<svg xmlns="http://www.w3.org/2000/svg" width="50" height="50" fill="none" stroke="currentColor" stroke-width="0" viewBox="0 0 24 24"><path fill="currentColor" stroke="none" d="m20.2739 9.86883-3.4414-4.91491 1.6383-1.14716 3.4414 4.91491-1.6383 1.14716ZM18.3901 12.4086l-1.7207-2.45739L8.47783 15.687l1.72067 2.4574-1.63827 1.1472-4.58861-6.5533 1.6383-1.1471 1.72076 2.4575 8.19152-5.73579-1.7207-2.45751 1.6383-1.14715 4.5886 6.55325-1.6383 1.1471ZM20.7651 7.08331l1.6383-1.14715-1.1472-1.63831L19.6179 5.445l1.1472 1.63831ZM7.16753 19.046l-3.44146-4.915-1.6383 1.1472 3.44146 4.9149 1.6383-1.1471ZM4.38208 18.5549 2.74377 19.702l-1.14715-1.6383 1.6383-1.1471 1.14716 1.6383Z"/></svg>