<svg xmlns="http://www.w3.org/2000/svg" version="1.0" viewBox="0 0 400 300"><path fill="currentColor" d="M191 99.1c-9 1.5-19 7-25.6 14.1-23.7 25.7-13.6 65.7 19.6 76.8 9.5 3.2 24 2.6 32.5-1.3 13.5-6.3 22.5-16.5 26.6-29.9 3.2-10.3 2.4-23-1.9-32.3-4.1-8.7-8.2-13.8-15.4-19.1-9.7-7.1-23.7-10.4-35.8-8.3zm-1 26.4c1.5 1.8.5 3.5-2.3 3.5-1.9 0-1.8.3 1.3 3.5s3.8 3.5 9.5 3.5 6.4-.3 9.5-3.5c3.1-3.2 3.2-3.5 1.3-3.5-2.8 0-3.8-1.7-2.3-3.5 1.6-2 2.9-1.9 3.7.2.8 2.1 4.5 5.8 6.7 6.6 2 .8 2 2.1.1 3.7-1.7 1.4-3.9.4-3.1-1.6 1-2.6-.9-1.4-5.7 3.4l-4.6 4.7-.3 14.5c-.3 13.7-.4 14.5-2.3 14.5-1.8 0-2-.9-2.6-10l-.5-10-.2 10.3c-.2 10.1-.3 10.3-2.4 10-2.3-.3-2.3-.6-2.6-14.8l-.3-14.5-4.6-4.7c-4.8-4.8-6.7-6-5.7-3.4.8 2-1.4 3-3.1 1.6-1.9-1.6-1.9-2.9.1-3.7 2.2-.8 5.9-4.5 6.7-6.6.8-2.1 2.1-2.2 3.7-.2zm12 1.9c3.1 3.8-.9 8.9-5.4 6.8-4.5-2-3-8.2 2-8.2 1.2 0 2.7.7 3.4 1.4z"/></svg>