<svg xmlns="http://www.w3.org/2000/svg" version="1.0"  viewBox="0 0 400 300" preserveAspectRatio="xMidYMid meet" > 

<g transform="translate( 0 , 300) scale(0.100000,-0.100000)" fill="currentColor" stroke="none">
<path d="M1910 2009 c-90 -15 -190 -70 -256 -141 -237 -257 -136 -657 196 -768 95 -32 240 -26 325 13 135 63 225 165 266 299 32 103 24 230 -19 323 -41 87 -82 138 -154 191 -97 71 -237 104 -358 83z m-10 -264 c15 -18 5 -35 -23 -35 -19 0 -18 -3 13 -35 31 -32 38 -35 95 -35 57 0 64 3 95 35 31 32 32 35 13 35 -28 0 -38 17 -23 35 16 20 29 19 37 -2 8 -21 45 -58 67 -66 20 -8 20 -21 1 -37 -17 -14 -39 -4 -31 16 10 26 -9 14 -57 -34 l-46 -47 -3 -145 c-3 -137 -4 -145 -23 -145 -18 0 -20 9 -26 100 l-5 100 -2 -103 c-2 -101 -3 -103 -24 -100 -23 3 -23 6 -26 148 l-3 145 -46 47 c-48 48 -67 60 -57 34 8 -20 -14 -30 -31 -16 -19 16 -19 29 1 37 22 8 59 45 67 66 8 21 21 22 37 2z m120 -19 c31 -38 -9 -89 -54 -68 -45 20 -30 82 20 82 12 0 27 -7 34 -14z"/>
</g>
</svg>