<svg width="0" height="0" class="hidden">
  <symbol stroke="currentColor" fill="currentColor" stroke-width="0" xmlns="http://www.w3.org/2000/svg" viewBox="0 0 640 512" id="google">
    <path d="M386.061 228.496c1.834 9.692 3.143 19.384 3.143 31.956C389.204 370.205 315.599 448 204.8 448c-106.084 0-192-85.915-192-192s85.916-192 192-192c51.864 0 95.083 18.859 128.611 50.292l-52.126 50.03c-14.145-13.621-39.028-29.599-76.485-29.599-65.484 0-118.92 54.221-118.92 121.277 0 67.056 53.436 121.277 118.92 121.277 75.961 0 104.513-54.745 108.965-82.773H204.8v-66.009h181.261zm185.406 6.437V179.2h-56.001v55.733h-55.733v56.001h55.733v55.733h56.001v-55.733H627.2v-56.001h-55.733z"></path>
  </symbol>
  <symbol stroke="currentColor" fill="currentColor" stroke-width="0" aria-hidden="true" xmlns="http://www.w3.org/2000/svg" viewBox="0 0 20 20" id="hi-menu">
    <path fill-rule="evenodd" d="M3 5a1 1 0 011-1h12a1 1 0 110 2H4a1 1 0 01-1-1zM3 10a1 1 0 011-1h12a1 1 0 110 2H4a1 1 0 01-1-1zM3 15a1 1 0 011-1h12a1 1 0 110 2H4a1 1 0 01-1-1z" clip-rule="evenodd"></path>
  </symbol>
  <symbol xmlns="http://www.w3.org/2000/svg" fill="none" stroke="currentColor" stroke-linecap="round" stroke-linejoin="round" stroke-width="2" viewBox="0 0 24 24" id="kitchen-tools">
    <path stroke="none" d="M0 0h24v24H0z"></path>
    <path d="M19 3v12h-5c-.023-3.681.184-7.406 5-12zm0 12v6h-1v-3M8 4v17M5 4v3a3 3 0 1 0 6 0V4"></path>
  </symbol>
  <symbol stroke="currentColor" fill="currentColor" stroke-width="0" xmlns="http://www.w3.org/2000/svg" viewBox="0 0 448 512" id="linkedin">
    <path d="M100.28 448H7.4V148.9h92.88zM53.79 108.1C24.09 108.1 0 83.5 0 53.8a53.79 53.79 0 0 1 107.58 0c0 29.7-24.1 54.3-53.79 54.3zM447.9 448h-92.68V302.4c0-34.7-.7-79.2-48.29-79.2-48.29 0-55.69 37.7-55.69 76.7V448h-92.78V148.9h89.08v40.8h1.3c12.4-23.5 42.69-48.3 87.88-48.3 94 0 111.28 61.9 111.28 142.3V448z"></path>
  </symbol>
  <symbol xmlns="http://www.w3.org/2000/svg" version="1.0" viewBox="0 0 400 300" id="loader">
    <path fill="currentColor" d="M191 99.1c-9 1.5-19 7-25.6 14.1-23.7 25.7-13.6 65.7 19.6 76.8 9.5 3.2 24 2.6 32.5-1.3 13.5-6.3 22.5-16.5 26.6-29.9 3.2-10.3 2.4-23-1.9-32.3-4.1-8.7-8.2-13.8-15.4-19.1-9.7-7.1-23.7-10.4-35.8-8.3zm-1 26.4c1.5 1.8.5 3.5-2.3 3.5-1.9 0-1.8.3 1.3 3.5s3.8 3.5 9.5 3.5 6.4-.3 9.5-3.5c3.1-3.2 3.2-3.5 1.3-3.5-2.8 0-3.8-1.7-2.3-3.5 1.6-2 2.9-1.9 3.7.2.8 2.1 4.5 5.8 6.7 6.6 2 .8 2 2.1.1 3.7-1.7 1.4-3.9.4-3.1-1.6 1-2.6-.9-1.4-5.7 3.4l-4.6 4.7-.3 14.5c-.3 13.7-.4 14.5-2.3 14.5-1.8 0-2-.9-2.6-10l-.5-10-.2 10.3c-.2 10.1-.3 10.3-2.4 10-2.3-.3-2.3-.6-2.6-14.8l-.3-14.5-4.6-4.7c-4.8-4.8-6.7-6-5.7-3.4.8 2-1.4 3-3.1 1.6-1.9-1.6-1.9-2.9.1-3.7 2.2-.8 5.9-4.5 6.7-6.6.8-2.1 2.1-2.2 3.7-.2zm12 1.9c3.1 3.8-.9 8.9-5.4 6.8-4.5-2-3-8.2 2-8.2 1.2 0 2.7.7 3.4 1.4z"></path>
  </symbol>
  <symbol stroke="currentColor" fill="currentColor" stroke-width="0" xmlns="http://www.w3.org/2000/svg" viewBox="0 0 512 512" id="mail">
    <path d="M460.6 147.3L353 256.9c-.8.8-.8 2 0 2.8l75.3 80.2c5.1 5.1 5.1 13.3 0 18.4-2.5 2.5-5.9 3.8-9.2 3.8s-6.7-1.3-9.2-3.8l-75-79.9c-.8-.8-2.1-.8-2.9 0L313.7 297c-15.3 15.5-35.6 24.1-57.4 24.2-22.1.1-43.1-9.2-58.6-24.9l-17.6-17.9c-.8-.8-2.1-.8-2.9 0l-75 79.9c-2.5 2.5-5.9 3.8-9.2 3.8s-6.7-1.3-9.2-3.8c-5.1-5.1-5.1-13.3 0-18.4l75.3-80.2c.7-.8.7-2 0-2.8L51.4 147.3c-1.3-1.3-3.4-.4-3.4 1.4V368c0 17.6 14.4 32 32 32h352c17.6 0 32-14.4 32-32V148.7c0-1.8-2.2-2.6-3.4-1.4z"></path>
    <path d="M256 295.1c14.8 0 28.7-5.8 39.1-16.4L452 119c-5.5-4.4-12.3-7-19.8-7H79.9c-7.5 0-14.4 2.6-19.8 7L217 278.7c10.3 10.5 24.2 16.4 39 16.4z"></path>
  </symbol>
  <symbol stroke="currentColor" fill="currentColor" stroke-width="0" role="img" xmlns="http://www.w3.org/2000/svg" viewBox="0 0 24 24" id="map-point">
    <path d="M19.527 4.799c1.212 2.608.937 5.678-.405 8.173-1.101 2.047-2.744 3.74-4.098 5.614-.619.858-1.244 1.75-1.669 2.727-.141.325-.263.658-.383.992-.121.333-.224.673-.34 1.008-.109.314-.236.684-.627.687h-.007c-.466-.001-.579-.53-.695-.887-.284-.874-.581-1.713-1.019-2.525-.51-.944-1.145-1.817-1.79-2.671L19.527 4.799zM8.545 7.705l-3.959 4.707c.724 1.54 1.821 2.863 2.871 4.18.247.31.494.622.737.936l4.984-5.925-.029.01c-1.741.601-3.691-.291-4.392-1.987a3.377 3.377 0 0 1-.209-.716c-.063-.437-.077-.761-.004-1.198l.001-.007zM5.492 3.149l-.003.004c-1.947 2.466-2.281 5.88-1.117 8.77l4.785-5.689-.058-.05-3.607-3.035zM14.661.436l-3.838 4.563a.295.295 0 0 1 .027-.01c1.6-.551 3.403.15 4.22 1.626.176.319.323.683.377 1.045.068.446.085.773.012 1.22l-.003.016 3.836-4.561A8.382 8.382 0 0 0 14.67.439l-.009-.003zM9.466 5.868L14.162.285l-.047-.012A8.31 8.31 0 0 0 11.986 0a8.439 8.439 0 0 0-6.169 2.766l-.016.018 3.665 3.084z"></path>
  </symbol>
  <symbol stroke="currentColor" fill="currentColor" stroke-width="0" xmlns="http://www.w3.org/2000/svg" viewBox="0 0 24 24" id="phone">
    <path fill="none" d="M0 0h24v24H0z"></path>
    <path d="M6.62 10.79c1.44 2.83 3.76 5.14 6.59 6.59l2.2-2.2c.27-.27.67-.36 1.02-.24 1.12.37 2.33.57 3.57.57.55 0 1 .45 1 1V20c0 .55-.45 1-1 1-9.39 0-17-7.61-17-17 0-.55.45-1 1-1h3.5c.55 0 1 .45 1 1 0 1.25.2 2.45.57 3.57.11.35.03.74-.25 1.02l-2.2 2.2z"></path>
  </symbol>
  <symbol stroke="currentColor" fill="currentColor" stroke-width="0" version="1.1" color="white" xmlns="http://www.w3.org/2000/svg" viewBox="0 0 17 17" id="play">
    <g></g>
    <path d="M9.644 8.5l-6.854 6.854-0.707-0.707 6.146-6.147-6.146-6.146 0.707-0.708 6.854 6.854zM7.634 1.646l-0.707 0.708 6.146 6.146-6.146 6.146 0.707 0.707 6.853-6.853-6.853-6.854z"></path>
  </symbol>
  <symbol stroke="currentColor" fill="currentColor" stroke-width="0" color="#fff" xmlns="http://www.w3.org/2000/svg" viewBox="0 0 24 24" id="play-filled">
    <path fill="none" d="M0 0h24v24H0z"></path>
    <path d="M12 2C6.48 2 2 6.48 2 12s4.48 10 10 10 10-4.48 10-10S17.52 2 12 2zM9.5 16.5v-9l7 4.5-7 4.5z"></path>
  </symbol>
  <symbol stroke="currentColor" fill="currentColor" stroke-width="0" xmlns="http://www.w3.org/2000/svg" viewBox="0 0 512 512" id="scale">
    <path d="M432 32H80a48.05 48.05 0 0 0-48 48v352a48.05 48.05 0 0 0 48 48h352a48.05 48.05 0 0 0 48-48V80a48.05 48.05 0 0 0-48-48zm-16.71 165-52.46 61.73a27.83 27.83 0 0 1-37.65 4.62c-13-9.29-39.27-24.89-69.18-24.89s-56.18 15.6-69.18 24.89a27.84 27.84 0 0 1-37.65-4.62L96.71 197a32.12 32.12 0 0 1 .42-42c18.93-21.31 72.3-70.87 158.87-70.87S395.94 133.72 414.87 155a32.12 32.12 0 0 1 .42 42z"></path>
  </symbol>
  <symbol stroke="currentColor" fill="currentColor" stroke-width="0" xmlns="http://www.w3.org/2000/svg" viewBox="0 0 512 512" id="settings">
    <path d="M413.967 276.8c1.06-6.235 1.06-13.518 1.06-20.8s-1.06-13.518-1.06-20.8l44.667-34.318c4.26-3.118 5.319-8.317 2.13-13.518L418.215 115.6c-2.129-4.164-8.507-6.235-12.767-4.164l-53.186 20.801c-10.638-8.318-23.394-15.601-36.16-20.801l-7.448-55.117c-1.06-4.154-5.319-8.318-10.638-8.318h-85.098c-5.318 0-9.577 4.164-10.637 8.318l-8.508 55.117c-12.767 5.2-24.464 12.482-36.171 20.801l-53.186-20.801c-5.319-2.071-10.638 0-12.767 4.164L49.1 187.365c-2.119 4.153-1.061 10.399 2.129 13.518L96.97 235.2c0 7.282-1.06 13.518-1.06 20.8s1.06 13.518 1.06 20.8l-44.668 34.318c-4.26 3.118-5.318 8.317-2.13 13.518L92.721 396.4c2.13 4.164 8.508 6.235 12.767 4.164l53.187-20.801c10.637 8.318 23.394 15.601 36.16 20.801l8.508 55.117c1.069 5.2 5.318 8.318 10.637 8.318h85.098c5.319 0 9.578-4.164 10.638-8.318l8.518-55.117c12.757-5.2 24.464-12.482 36.16-20.801l53.187 20.801c5.318 2.071 10.637 0 12.767-4.164l42.549-71.765c2.129-4.153 1.06-10.399-2.13-13.518l-46.8-34.317zm-158.499 52c-41.489 0-74.46-32.235-74.46-72.8s32.971-72.8 74.46-72.8 74.461 32.235 74.461 72.8-32.972 72.8-74.461 72.8z"></path>
  </symbol>
  <symbol stroke="currentColor" fill="currentColor" stroke-width="0" xmlns="http://www.w3.org/2000/svg" viewBox="0 0 448 512" id="skype">
    <path d="M424.7 299.8c2.9-14 4.7-28.9 4.7-43.8 0-113.5-91.9-205.3-205.3-205.3-14.9 0-29.7 1.7-43.8 4.7C161.3 40.7 137.7 32 112 32 50.2 32 0 82.2 0 144c0 25.7 8.7 49.3 23.3 68.2-2.9 14-4.7 28.9-4.7 43.8 0 113.5 91.9 205.3 205.3 205.3 14.9 0 29.7-1.7 43.8-4.7 19 14.6 42.6 23.3 68.2 23.3 61.8 0 112-50.2 112-112 .1-25.6-8.6-49.2-23.2-68.1zm-194.6 91.5c-65.6 0-120.5-29.2-120.5-65 0-16 9-30.6 29.5-30.6 31.2 0 34.1 44.9 88.1 44.9 25.7 0 42.3-11.4 42.3-26.3 0-18.7-16-21.6-42-28-62.5-15.4-117.8-22-117.8-87.2 0-59.2 58.6-81.1 109.1-81.1 55.1 0 110.8 21.9 110.8 55.4 0 16.9-11.4 31.8-30.3 31.8-28.3 0-29.2-33.5-75-33.5-25.7 0-42 7-42 22.5 0 19.8 20.8 21.8 69.1 33 41.4 9.3 90.7 26.8 90.7 77.6 0 59.1-57.1 86.5-112 86.5z"></path>
  </symbol>
  <symbol stroke="currentColor" fill="currentColor" stroke-width="0" xmlns="http://www.w3.org/2000/svg" viewBox="0 0 512 512" id="twitter">
    <path d="M459.37 151.716c.325 4.548.325 9.097.325 13.645 0 138.72-105.583 298.558-298.558 298.558-59.452 0-114.68-17.219-161.137-47.106 8.447.974 16.568 1.299 25.34 1.299 49.055 0 94.213-16.568 130.274-44.832-46.132-.975-84.792-31.188-98.112-72.772 6.498.974 12.995 1.624 19.818 1.624 9.421 0 18.843-1.3 27.614-3.573-48.081-9.747-84.143-51.98-84.143-102.985v-1.299c13.969 7.797 30.214 12.67 47.431 13.319-28.264-18.843-46.781-51.005-46.781-87.391 0-19.492 5.197-37.36 14.294-52.954 51.655 63.675 129.3 105.258 216.365 109.807-1.624-7.797-2.599-15.918-2.599-24.04 0-57.828 46.782-104.934 104.934-104.934 30.213 0 57.502 12.67 76.67 33.137 23.715-4.548 46.456-13.32 66.599-25.34-7.798 24.366-24.366 44.833-46.132 57.827 21.117-2.273 41.584-8.122 60.426-16.243-14.292 20.791-32.161 39.308-52.628 54.253z"></path>
  </symbol>
  <symbol stroke="currentColor" fill="currentColor" stroke-width="0" xmlns="http://www.w3.org/2000/svg" viewBox="0 0 24 24" id="arrow-right">
    <path fill="none" d="M0 0h24v24H0V0z"></path>
    <path d="M8.59 16.59 13.17 12 8.59 7.41 10 6l6 6-6 6-1.41-1.41z"></path>
  </symbol>
  <symbol stroke="currentColor" fill="currentColor" stroke-width="0" xmlns="http://www.w3.org/2000/svg" viewBox="0 0 512 512" id="arrow-up">
    <path d="M256 217.9L383 345c9.4 9.4 24.6 9.4 33.9 0 9.4-9.4 9.3-24.6 0-34L273 167c-9.1-9.1-23.7-9.3-33.1-.7L95 310.9c-4.7 4.7-7 10.9-7 17s2.3 12.3 7 17c9.4 9.4 24.6 9.4 33.9 0l127.1-127z"></path>
  </symbol>
  <symbol stroke="currentColor" fill="currentColor" stroke-width="0" xmlns="http://www.w3.org/2000/svg" viewBox="0 0 640 512" id="bed">
    <path d="M176 256c44.11 0 80-35.89 80-80s-35.89-80-80-80-80 35.89-80 80 35.89 80 80 80zm352-128H304c-8.84 0-16 7.16-16 16v144H64V80c0-8.84-7.16-16-16-16H16C7.16 64 0 71.16 0 80v352c0 8.84 7.16 16 16 16h32c8.84 0 16-7.16 16-16v-48h512v48c0 8.84 7.16 16 16 16h32c8.84 0 16-7.16 16-16V240c0-61.86-50.14-112-112-112z"></path>
  </symbol>
  <symbol stroke="currentColor" fill="currentColor" stroke-width="0" xmlns="http://www.w3.org/2000/svg" viewBox="0 0 24 24" id="cancel">
    <path fill="none" d="M0 0h24v24H0z"></path>
    <path d="M12 2C6.47 2 2 6.47 2 12s4.47 10 10 10 10-4.47 10-10S17.53 2 12 2zm5 13.59L15.59 17 12 13.41 8.41 17 7 15.59 10.59 12 7 8.41 8.41 7 12 10.59 15.59 7 17 8.41 13.41 12 17 15.59z"></path>
  </symbol>
  <symbol stroke="currentColor" fill="currentColor" stroke-width="0" xmlns="http://www.w3.org/2000/svg" viewBox="0 0 320 512" id="double-down-angle">
    <path d="M143 256.3L7 120.3c-9.4-9.4-9.4-24.6 0-33.9l22.6-22.6c9.4-9.4 24.6-9.4 33.9 0l96.4 96.4 96.4-96.4c9.4-9.4 24.6-9.4 33.9 0L313 86.3c9.4 9.4 9.4 24.6 0 33.9l-136 136c-9.4 9.5-24.6 9.5-34 .1zm34 192l136-136c9.4-9.4 9.4-24.6 0-33.9l-22.6-22.6c-9.4-9.4-24.6-9.4-33.9 0L160 352.1l-96.4-96.4c-9.4-9.4-24.6-9.4-33.9 0L7 278.3c-9.4 9.4-9.4 24.6 0 33.9l136 136c9.4 9.5 24.6 9.5 34 .1z"></path>
  </symbol>
  <symbol xmlns="http://www.w3.org/2000/svg" fill="none" stroke="currentColor" stroke-width="0" viewBox="0 0 24 24" id="exercise">
    <path fill="currentColor" stroke="none" d="m20.2739 9.86883-3.4414-4.91491 1.6383-1.14716 3.4414 4.91491-1.6383 1.14716ZM18.3901 12.4086l-1.7207-2.45739L8.47783 15.687l1.72067 2.4574-1.63827 1.1472-4.58861-6.5533 1.6383-1.1471 1.72076 2.4575 8.19152-5.73579-1.7207-2.45751 1.6383-1.14715 4.5886 6.55325-1.6383 1.1471ZM20.7651 7.08331l1.6383-1.14715-1.1472-1.63831L19.6179 5.445l1.1472 1.63831ZM7.16753 19.046l-3.44146-4.915-1.6383 1.1472 3.44146 4.9149 1.6383-1.1471ZM4.38208 18.5549 2.74377 19.702l-1.14715-1.6383 1.6383-1.1471 1.14716 1.6383Z"></path>
  </symbol>
  <symbol stroke="currentColor" fill="currentColor" stroke-width="0" xmlns="http://www.w3.org/2000/svg" viewBox="0 0 320 512" id="facebook">
    <path d="M279.14 288l14.22-92.66h-88.91v-60.13c0-25.35 12.42-50.06 52.24-50.06h40.42V6.26S260.43 0 225.36 0c-73.22 0-121.08 44.38-121.08 124.72v70.62H22.89V288h81.39v224h100.17V288z"></path>
  </symbol>
</svg>